<mxfile host="app.diagrams.net" modified="2023-12-22T10:19:24.616Z" agent="Mozilla/5.0 (Windows NT 10.0; Win64; x64) AppleWebKit/537.36 (KHTML, like Gecko) Chrome/120.0.0.0 Safari/537.36 Edg/120.0.0.0" etag="J2I-pTzpdkkV5d4234Iy" version="22.1.11" type="device">
  <diagram name="Stránka-1" id="ZEBA-Z3yK0U3OZw3CZRj">
    <mxGraphModel dx="983" dy="541" grid="1" gridSize="10" guides="1" tooltips="1" connect="1" arrows="1" fold="1" page="1" pageScale="1" pageWidth="200" pageHeight="200" math="0" shadow="0">
      <root>
        <mxCell id="0" />
        <mxCell id="1" parent="0" />
        <mxCell id="yuABfuT9M7FIByllT8Fm-1" value="" style="whiteSpace=wrap;html=1;fillColor=none;" vertex="1" parent="1">
          <mxGeometry x="15" y="55" width="90" height="110" as="geometry" />
        </mxCell>
        <mxCell id="zVorr4OCAxp33XEzfzQW-1" value="" style="verticalLabelPosition=bottom;shadow=0;dashed=0;align=center;html=1;verticalAlign=top;shape=mxgraph.electrical.transistors.npn_transistor_1;" parent="1" vertex="1">
          <mxGeometry x="45" y="85" width="38" height="40" as="geometry" />
        </mxCell>
        <mxCell id="zVorr4OCAxp33XEzfzQW-2" value="" style="pointerEvents=1;verticalLabelPosition=bottom;shadow=0;dashed=0;align=center;html=1;verticalAlign=top;shape=mxgraph.electrical.signal_sources.signal_ground;" parent="1" vertex="1">
          <mxGeometry x="56" y="139" width="30" height="20" as="geometry" />
        </mxCell>
        <mxCell id="zVorr4OCAxp33XEzfzQW-3" value="" style="verticalLabelPosition=bottom;shadow=0;dashed=0;align=center;html=1;verticalAlign=top;strokeWidth=1;shape=ellipse;" parent="1" vertex="1">
          <mxGeometry x="25" y="100" width="10" height="10" as="geometry" />
        </mxCell>
        <mxCell id="zVorr4OCAxp33XEzfzQW-5" value="" style="endArrow=none;html=1;rounded=0;entryX=0;entryY=0.5;entryDx=0;entryDy=0;entryPerimeter=0;exitX=1;exitY=0.5;exitDx=0;exitDy=0;" parent="1" source="zVorr4OCAxp33XEzfzQW-3" target="zVorr4OCAxp33XEzfzQW-1" edge="1">
          <mxGeometry width="50" height="50" relative="1" as="geometry">
            <mxPoint x="-160" y="305" as="sourcePoint" />
            <mxPoint x="-110" y="255" as="targetPoint" />
          </mxGeometry>
        </mxCell>
        <mxCell id="zVorr4OCAxp33XEzfzQW-7" value="" style="endArrow=none;html=1;rounded=0;entryX=0.7;entryY=1;entryDx=0;entryDy=0;entryPerimeter=0;exitX=0.5;exitY=0;exitDx=0;exitDy=0;exitPerimeter=0;" parent="1" source="zVorr4OCAxp33XEzfzQW-2" target="zVorr4OCAxp33XEzfzQW-1" edge="1">
          <mxGeometry width="50" height="50" relative="1" as="geometry">
            <mxPoint x="-10" y="265" as="sourcePoint" />
            <mxPoint x="40" y="215" as="targetPoint" />
          </mxGeometry>
        </mxCell>
        <mxCell id="zVorr4OCAxp33XEzfzQW-8" value="" style="verticalLabelPosition=bottom;shadow=0;dashed=0;align=center;html=1;verticalAlign=top;strokeWidth=1;shape=ellipse;" parent="1" vertex="1">
          <mxGeometry x="125" y="65" width="10" height="10" as="geometry" />
        </mxCell>
        <mxCell id="zVorr4OCAxp33XEzfzQW-9" value="" style="endArrow=none;html=1;rounded=0;exitX=0.7;exitY=0;exitDx=0;exitDy=0;exitPerimeter=0;entryX=0;entryY=0.5;entryDx=0;entryDy=0;" parent="1" source="zVorr4OCAxp33XEzfzQW-1" target="zVorr4OCAxp33XEzfzQW-8" edge="1">
          <mxGeometry width="50" height="50" relative="1" as="geometry">
            <mxPoint x="120" y="85" as="sourcePoint" />
            <mxPoint x="170" y="35" as="targetPoint" />
            <Array as="points">
              <mxPoint x="71" y="70" />
            </Array>
          </mxGeometry>
        </mxCell>
        <mxCell id="zVorr4OCAxp33XEzfzQW-10" value="Mikrokontrolér" style="text;html=1;strokeColor=none;fillColor=none;align=center;verticalAlign=middle;whiteSpace=wrap;rounded=0;fontSize=10;" parent="1" vertex="1">
          <mxGeometry x="22.5" y="35" width="75" height="20" as="geometry" />
        </mxCell>
        <mxCell id="zVorr4OCAxp33XEzfzQW-11" value="Sběrnice" style="text;html=1;strokeColor=none;fillColor=none;align=center;verticalAlign=middle;whiteSpace=wrap;rounded=0;fontSize=10;" parent="1" vertex="1">
          <mxGeometry x="135" y="60" width="50" height="20" as="geometry" />
        </mxCell>
        <mxCell id="zVorr4OCAxp33XEzfzQW-12" value="Země" style="text;html=1;strokeColor=none;fillColor=none;align=center;verticalAlign=middle;whiteSpace=wrap;rounded=0;fontSize=10;" parent="1" vertex="1">
          <mxGeometry x="35" y="126" width="35" height="19" as="geometry" />
        </mxCell>
      </root>
    </mxGraphModel>
  </diagram>
</mxfile>
